<svg height="511pt" viewBox="0 1 511 511.999" width="511pt" xmlns="http://www.w3.org/2000/svg"><path d="m57.566406 109.289062-52.203125 100.410157c-.039062.070312-.074219.140625-.109375.210937-4.109375 8.222656-5.597656 17.382813-4.296875 26.488282.007813.046874.015625.09375.019531.144531l30.675782 200.722656c1.121094 7.324219 7.417968 12.734375 14.828125 12.734375h45v47c0 8.28125 6.714843 15 15 15h300c8.285156 0 15-6.71875 15-15v-47h46c7.363281 0 13.636719-5.34375 14.808593-12.613281l29.699219-184.316407c.011719-.085937.027344-.175781.039063-.261718 1.148437-8.035156.101562-16.238282-3.03125-23.726563-.058594-.144531-.125-.285156-.1875-.429687l-53.332032-117.101563c-5.042968-11.871093-14.9375-21.011719-27.1875-25.089843l-45.355468-15.121094c5.367187-7.410156 8.546875-16.511719 8.546875-26.339844 0-24.8125-20.1875-45-45-45h-180c-24.8125 0-45 20.1875-45 45 0 9.832031 3.175781 18.929688 8.546875 26.339844l-46.5 15.5c-11.363282 3.789062-20.578125 11.757812-25.960938 22.449218zm333.914063 310.710938h-30v-60h30zm0-90h-30v-30h30zm27.324219-215.082031c4.109374 1.371093 7.425781 4.449219 9.097656 8.445312.058594.144531.121094.285157.1875.429688l53.304687 117.042969c.972657 2.410156 1.300781 5.039062.949219 7.617187l-27.640625 171.546875h-33.222656c0-9.179688 0-189.570312 0-195 0-8.285156-6.714844-15-15-15-8.285157 0-15 6.714844-15 15v45h-45c-8.285157 0-15 6.714844-15 15v150c0 8.28125 6.714843 15 15 15h45v32h-120v-312.460938l53.027343-79.539062h6.972657v105c0 8.28125 6.714843 15 15 15 8.285156 0 15-6.71875 15-15v-99.191406zm-252.324219-84.917969h180c8.269531 0 15 6.726562 15 15 0 8.269531-6.730469 15-15 15h-30c-5.015625 0-9.699219 2.507812-12.480469 6.679688l-47.519531 71.277343-47.519531-71.277343c-2.78125-4.171876-7.464844-6.679688-12.480469-6.679688h-30c-8.269531 0-15-6.730469-15-15 0-8.273438 6.730469-15 15-15zm-82.140625 92.820312c1.792968-3.582031 4.871094-6.253906 8.671875-7.519531l58.46875-19.488281v99.1875c0 8.28125 6.714843 15 15 15 8.285156 0 15-6.71875 15-15v-105h6.972656l53.027344 79.539062v312.460938h-120v-32h45c8.285156 0 15-6.71875 15-15v-150c0-8.285156-6.714844-15-15-15h-45v-45c0-8.285156-6.714844-15-15-15-8.285157 0-15 6.714844-15 15v195h-32.117188l-28.714843-187.902344c-.417969-2.984375.066406-5.984375 1.394531-8.6875l52.1875-100.378906c.039062-.066406.074219-.140625.109375-.210938zm67.140625 237.179688v60h-30v-60zm-30-30v-30h30v30zm0 0"/></svg>